if (_typeface_js && _typeface_js.loadFace) _typeface_js.loadFace({"glyphs":{"S":{"x_min":50,"x_max":631,"ha":664,"o":"m 50 105 l 50 253 l 106 253 l 106 128 q 200 69 144 93 q 332 45 256 45 q 422 59 378 45 q 499 101 465 74 q 552 167 532 128 q 573 255 573 205 q 552 355 573 316 q 497 419 531 394 q 421 459 464 444 q 333 488 378 475 q 244 516 287 501 q 164 557 200 532 q 107 620 129 582 q 82 718 84 658 q 93 810 79 764 q 137 893 107 857 q 216 954 168 930 q 334 978 265 978 q 386 975 358 978 q 443 965 413 972 q 501 944 472 958 q 557 908 530 930 l 557 759 l 501 759 l 501 880 q 432 909 474 897 q 333 922 389 922 q 248 906 284 922 q 187 863 212 890 q 151 800 163 835 q 140 727 140 765 q 160 645 140 677 q 215 593 181 614 q 293 558 249 572 q 383 530 337 544 q 473 498 429 516 q 551 449 516 479 q 608 373 586 419 q 631 258 629 327 q 608 147 631 197 q 545 61 585 97 q 451 7 505 26 q 337 -11 397 -11 q 237 0 283 -11 q 154 28 191 11 q 91 66 118 45 q 50 105 65 87 "},"/":{"x_min":24,"x_max":468,"ha":479,"o":"m 24 -26 q 217 498 121 237 q 410 1022 312 758 l 468 1022 q 275 498 370 758 q 82 -26 179 237 l 24 -26 "},"K":{"x_min":48,"x_max":904,"ha":953,"o":"m 636 56 l 719 56 q 526 300 623 178 q 332 546 429 423 l 211 431 q 212 243 211 337 q 213 56 213 150 l 327 56 l 327 0 l 48 0 l 48 56 l 155 56 l 155 916 l 48 916 l 48 972 l 316 972 l 316 916 l 213 916 l 213 535 q 210 515 211 524 q 210 494 210 505 l 235 523 l 646 916 l 573 916 l 573 972 l 841 972 l 841 916 l 721 916 l 372 584 q 581 319 477 451 q 790 56 685 187 l 904 56 l 904 0 l 636 0 l 636 56 "},"7":{"x_min":19,"x_max":583,"ha":651,"o":"m 583 903 l 177 0 l 109 0 l 491 847 l 75 847 l 75 763 l 19 763 l 19 903 l 583 903 "},"d":{"x_min":49,"x_max":699,"ha":747,"o":"m 543 55 q 543 88 543 72 q 544 119 544 104 q 514 72 534 95 q 465 30 494 48 q 400 1 437 12 q 322 -10 364 -10 q 215 11 265 -10 q 128 69 165 33 q 70 154 92 105 q 49 261 49 204 q 70 365 49 316 q 128 452 92 415 q 215 510 165 488 q 322 532 265 532 q 397 520 362 532 q 462 491 433 509 q 512 448 491 472 q 542 399 533 424 q 540 458 541 429 q 537 516 538 487 l 537 986 l 440 986 l 440 1042 l 596 1042 l 596 56 l 699 56 l 699 0 l 543 0 l 543 55 m 107 260 q 123 176 107 215 q 168 108 140 137 q 236 62 197 79 q 322 46 276 46 q 406 62 368 46 q 474 108 445 79 q 520 176 504 137 q 537 260 537 215 q 520 344 537 304 q 474 413 504 384 q 406 459 445 442 q 322 476 368 476 q 236 459 276 476 q 168 413 197 442 q 123 344 140 384 q 107 260 107 304 "},",":{"x_min":24,"x_max":196,"ha":278,"o":"m 196 119 q 136 -24 165 46 q 77 -167 107 -94 l 24 -167 q 77 -24 51 -94 q 131 119 103 46 l 196 119 "},"Y":{"x_min":49,"x_max":988,"ha":1036,"o":"m 382 56 l 485 56 l 485 368 q 320 642 401 505 q 157 916 239 778 l 49 916 l 49 972 l 328 972 l 328 916 l 226 916 q 501 458 365 687 l 518 419 l 519 419 l 534 458 l 808 916 l 709 916 l 709 972 l 988 972 l 988 916 l 879 916 q 716 641 797 777 q 553 368 634 505 l 553 56 l 661 56 l 661 0 l 382 0 l 382 56 "},"E":{"x_min":49,"x_max":745,"ha":793,"o":"m 49 56 l 149 56 l 149 916 l 49 916 l 49 972 l 726 972 l 726 758 l 670 758 l 670 916 l 205 916 l 205 518 l 671 518 l 671 462 l 205 462 l 205 56 l 689 56 l 689 214 l 745 214 l 745 0 l 49 0 l 49 56 "},"y":{"x_min":49.046875,"x_max":786.390625,"ha":835,"o":"m 128 -291 l 246 -291 q 318 -146 282 -219 q 390 -3 354 -73 q 272 231 331 115 q 156 465 214 346 l 49 465 l 49 521 l 306 521 l 306 465 l 219 465 q 322 258 270 360 q 421 52 374 156 q 518 256 465 152 q 624 465 571 360 l 543 465 l 543 521 l 786 521 l 786 465 l 685 465 q 496 87 589 274 q 307 -291 403 -100 l 396 -291 l 396 -347 l 128 -347 l 128 -291 "},"\"":{"x_min":88,"x_max":334,"ha":431,"o":"m 273 656 l 273 1000 l 334 1000 q 331 828 332 912 q 328 656 329 743 l 273 656 m 88 656 l 88 1000 l 149 1000 q 146 828 147 912 q 143 656 144 743 l 88 656 "},"g":{"x_min":49,"x_max":700,"ha":749,"o":"m 549 521 l 700 521 l 700 465 l 596 465 l 596 -48 q 575 -171 596 -116 q 518 -265 554 -226 q 434 -324 482 -303 q 330 -347 386 -345 q 213 -324 272 -345 q 117 -264 154 -304 l 158 -221 q 236 -270 189 -254 q 329 -287 283 -287 q 410 -269 372 -287 q 476 -220 449 -252 q 521 -143 504 -188 q 538 -44 538 -98 l 538 55 q 540 86 539 70 q 543 117 542 102 q 512 69 532 92 q 463 29 492 46 q 399 1 435 12 q 322 -10 362 -10 q 215 11 265 -10 q 128 69 165 33 q 70 154 92 105 q 49 261 49 204 q 70 365 49 316 q 128 452 92 415 q 215 510 165 488 q 322 532 265 532 q 399 520 362 532 q 464 489 435 508 q 513 446 493 470 q 543 398 533 422 q 545 459 543 429 q 549 521 547 490 m 107 260 q 123 176 107 215 q 168 108 140 137 q 237 62 197 79 q 322 46 276 46 q 407 62 368 46 q 475 108 446 79 q 521 176 504 137 q 538 260 538 215 q 521 344 538 304 q 475 413 504 384 q 407 459 446 442 q 322 476 368 476 q 237 459 276 476 q 168 413 197 442 q 123 344 140 384 q 107 260 107 304 "},"e":{"x_min":49,"x_max":560,"ha":613,"o":"m 321 476 q 227 454 269 476 q 156 398 185 433 q 115 316 126 363 q 113 222 103 270 q 299 296 206 260 q 486 371 392 333 q 418 446 462 417 q 321 476 373 476 m 560 337 q 344 251 451 294 q 129 166 237 209 q 204 79 153 113 q 321 46 255 46 q 401 61 364 46 q 466 105 439 76 q 484 83 476 93 q 503 62 493 73 q 421 9 466 28 q 321 -10 375 -10 q 214 11 264 -10 q 128 69 165 33 q 70 154 92 105 q 49 261 49 204 q 70 366 49 316 q 128 452 92 416 q 214 510 165 488 q 321 532 264 532 q 400 517 362 532 q 469 477 437 502 q 523 415 500 451 q 560 337 547 380 "},"J":{"x_min":48,"x_max":336,"ha":385,"o":"m 48 972 l 336 972 l 336 124 q 313 -12 336 46 q 252 -112 291 -71 q 160 -175 213 -153 q 48 -199 107 -197 l 48 -143 q 140 -120 98 -140 q 214 -66 183 -101 q 262 17 245 -31 q 280 129 280 66 l 280 916 l 48 916 l 48 972 "},"|":{"x_min":133,"x_max":191,"ha":333,"o":"m 133 -322 l 133 972 l 191 972 l 191 -322 l 133 -322 "},"^":{"x_min":156,"x_max":489,"ha":653,"o":"m 322 916 q 405 790 364 853 q 489 665 447 727 l 443 665 q 382 748 412 706 q 322 832 353 791 q 262 748 291 791 q 201 665 232 706 l 156 665 q 239 790 197 727 q 322 916 280 853 "},"q":{"x_min":49,"x_max":702,"ha":750,"o":"m 421 -291 l 538 -291 l 538 61 q 540 89 538 75 q 543 116 542 102 q 512 68 532 91 q 463 28 492 45 q 399 0 435 11 q 322 -11 362 -11 q 215 10 265 -11 q 128 68 165 32 q 70 155 92 105 q 49 260 49 204 q 70 365 49 315 q 128 451 92 415 q 215 509 165 487 q 322 531 265 531 q 399 519 362 531 q 464 488 435 507 q 514 445 493 469 q 544 396 535 421 q 547 457 544 426 q 549 521 549 489 l 702 521 l 702 465 l 596 465 l 596 -291 l 690 -291 l 690 -347 l 421 -347 l 421 -291 m 107 260 q 123 176 107 216 q 168 107 140 136 q 237 61 197 78 q 322 45 276 45 q 407 61 368 45 q 475 107 446 78 q 521 176 504 136 q 538 260 538 216 q 521 345 538 306 q 475 413 504 384 q 407 458 446 441 q 322 475 368 475 q 237 458 276 475 q 168 413 197 441 q 123 345 140 384 q 107 260 107 306 "},"b":{"x_min":49,"x_max":699,"ha":747,"o":"m 49 56 l 152 56 l 152 986 l 55 986 l 55 1042 l 210 1042 l 210 468 q 207 434 208 451 q 204 399 205 416 q 234 448 214 424 q 283 491 254 472 q 348 520 312 509 q 425 532 385 532 q 532 510 482 532 q 619 452 582 488 q 677 365 655 415 q 699 261 699 316 q 677 154 699 204 q 619 69 655 105 q 532 11 582 33 q 425 -10 482 -10 q 346 1 383 -10 q 281 30 310 12 q 232 72 253 48 q 203 119 212 95 q 203 88 203 104 q 204 55 204 72 l 204 0 l 49 0 l 49 56 m 641 260 q 624 344 641 304 q 579 413 607 384 q 511 459 550 442 q 425 476 471 476 q 340 459 379 476 q 272 413 301 442 q 226 344 243 384 q 210 260 210 304 q 226 176 210 215 q 272 108 243 137 q 340 62 301 79 q 425 46 379 46 q 511 62 471 46 q 579 108 550 79 q 624 176 607 137 q 641 260 641 215 "},"D":{"x_min":48,"x_max":829,"ha":878,"o":"m 48 56 l 136 56 l 136 916 l 48 916 l 48 972 l 339 972 q 528 937 439 972 q 684 840 617 903 q 790 687 751 777 q 829 486 829 597 q 800 317 829 404 q 708 161 772 231 q 542 45 644 90 q 292 0 439 0 l 48 0 l 48 56 m 192 916 l 192 56 l 313 56 q 515 92 428 56 q 658 189 601 129 q 744 327 715 250 q 773 486 773 404 q 738 664 773 584 q 645 800 704 744 q 507 886 586 856 q 339 916 428 916 l 192 916 "},"z":{"x_min":48.328125,"x_max":550,"ha":599,"o":"m 550 130 l 550 0 l 48 0 l 48 56 q 245 260 152 160 q 443 465 338 360 l 65 465 l 65 570 l 118 570 l 118 521 l 523 521 l 523 463 q 326 259 419 359 q 128 56 233 160 l 497 56 l 497 130 l 550 130 "},"w":{"x_min":48,"x_max":1129,"ha":1178,"o":"m 895 521 l 1129 521 l 1129 465 l 1033 465 q 908 215 970 338 q 784 -32 847 92 l 595 345 l 406 -32 q 282 215 344 92 q 157 465 220 338 l 48 465 l 48 521 l 296 521 l 296 465 l 215 465 q 313 268 264 366 q 406 73 361 170 q 474 217 439 145 q 545 361 509 288 q 531 413 538 387 q 517 465 524 438 l 429 465 l 429 521 l 685 521 l 685 465 l 593 465 q 691 268 642 366 q 784 73 739 170 q 878 269 830 172 q 975 465 926 366 l 895 465 l 895 521 "},"$":{"x_min":50,"x_max":631,"ha":788,"o":"m 501 758 l 501 879 q 442 906 477 895 q 360 920 408 917 l 360 537 q 456 504 408 521 q 542 456 504 487 q 605 378 580 426 q 631 258 629 331 q 610 151 631 199 q 552 67 589 102 q 465 12 515 33 q 360 -10 415 -7 l 360 -95 l 304 -95 l 304 -8 q 213 6 255 -5 q 141 34 172 17 q 86 70 110 51 q 50 105 63 88 l 50 253 l 106 253 l 106 127 q 188 71 140 94 q 304 46 237 48 l 304 495 q 223 523 262 507 q 153 564 183 539 q 104 625 123 588 q 82 717 84 661 q 91 804 79 760 q 130 884 102 848 q 199 945 157 920 q 304 974 242 970 l 304 1060 l 360 1060 l 360 976 q 457 959 404 973 q 557 907 511 945 l 557 758 l 501 758 m 573 254 q 554 347 573 310 q 506 409 536 385 q 438 449 476 434 q 360 477 400 464 l 360 46 q 440 66 401 50 q 508 108 479 82 q 555 171 538 135 q 573 254 573 208 m 140 727 q 153 659 140 686 q 189 613 166 632 q 240 580 211 594 q 304 556 270 567 l 304 915 q 232 894 263 911 q 181 851 201 877 q 150 793 161 825 q 140 727 140 761 "},"\\":{"x_min":14,"x_max":464,"ha":481,"o":"m 78 1022 q 271 498 175 758 q 464 -26 366 237 l 400 -26 q 207 498 302 237 q 14 1022 111 758 l 78 1022 "},"~":{"x_min":178,"x_max":591,"ha":679,"o":"m 371 682 q 333 713 350 705 q 297 721 317 721 q 273 718 286 721 q 247 707 260 715 q 225 686 235 700 q 213 650 215 672 q 195 651 204 651 q 178 652 186 651 q 190 698 179 679 q 218 731 201 718 q 255 750 235 744 q 296 757 276 757 q 349 743 325 757 q 396 706 374 730 q 435 675 418 683 q 471 668 452 668 q 495 670 481 668 q 521 681 509 673 q 543 702 534 688 q 555 739 552 716 q 573 737 564 737 q 591 736 582 737 q 578 690 589 709 q 550 657 567 670 q 513 638 533 644 q 472 632 492 632 q 419 645 443 632 q 371 682 394 658 "},"-":{"x_min":74,"x_max":330,"ha":417,"o":"m 74 235 l 74 291 l 330 291 l 330 235 l 74 235 "},"Q":{"x_min":48,"x_max":1074,"ha":1122,"o":"m 106 483 q 140 313 106 393 q 233 173 174 233 q 372 79 293 114 q 541 45 450 45 q 713 79 633 45 q 854 173 794 114 q 950 313 915 233 q 985 484 985 393 q 950 656 985 576 q 855 797 915 737 q 715 892 795 857 q 544 927 634 927 q 373 891 453 927 q 233 795 293 856 q 140 655 174 735 q 106 483 106 574 m 48 484 q 86 678 48 587 q 193 836 125 769 q 350 943 260 903 q 544 983 441 983 q 737 943 646 983 q 896 836 828 903 q 1003 678 963 769 q 1043 484 1043 587 q 1023 348 1043 414 q 969 228 1004 283 q 885 129 934 173 q 777 56 835 85 l 1074 56 l 1074 0 l 646 0 q 544 -11 594 -11 q 350 27 441 -11 q 193 134 260 66 q 86 291 125 201 q 48 484 48 381 "},"M":{"x_min":48,"x_max":1295,"ha":1343,"o":"m 1144 972 l 1290 972 l 1290 916 l 1178 916 l 1178 56 l 1295 56 l 1295 0 l 1016 0 l 1016 56 l 1120 56 l 1120 798 q 1120 807 1120 799 q 1122 825 1121 816 q 1122 842 1122 834 q 1122 853 1122 850 q 1112 837 1118 846 q 1097 817 1106 828 q 1015 707 1067 775 q 903 562 962 639 q 781 404 843 484 q 669 259 719 324 q 506 471 573 384 q 390 623 440 559 q 304 735 341 688 q 232 827 267 782 l 216 853 q 216 825 216 838 q 219 798 217 811 l 219 56 l 327 56 l 327 0 l 48 0 l 48 56 l 161 56 l 161 916 l 48 916 l 48 972 l 194 972 q 240 911 209 951 q 310 820 270 872 q 395 708 349 769 q 489 586 441 648 q 584 465 537 524 q 669 354 630 405 q 907 663 789 508 q 1144 972 1025 817 "},"C":{"x_min":49,"x_max":799,"ha":847,"o":"m 743 758 l 743 877 q 647 913 698 900 q 544 927 597 927 q 374 891 454 927 q 234 795 294 856 q 141 655 175 735 q 107 483 107 574 q 141 313 107 393 q 234 173 175 233 q 373 79 294 114 q 542 45 451 45 q 660 60 604 45 q 766 106 715 76 l 798 58 q 679 7 742 26 q 545 -11 615 -11 q 351 27 442 -11 q 194 134 261 66 q 87 291 126 201 q 49 484 49 381 q 87 678 49 587 q 194 836 126 769 q 351 943 261 903 q 544 983 442 983 q 678 964 615 983 q 799 913 742 946 l 799 758 l 743 758 "},"[":{"x_min":115,"x_max":358,"ha":469,"o":"m 115 -207 l 115 1036 l 358 1036 l 358 980 l 175 980 l 175 -151 l 358 -151 l 358 -207 l 115 -207 "},"L":{"x_min":48,"x_max":740,"ha":789,"o":"m 48 56 l 144 56 l 144 916 l 48 916 l 48 972 l 315 972 l 315 916 l 200 916 l 200 56 l 684 56 l 684 214 l 740 214 l 740 0 l 48 0 l 48 56 "},"!":{"x_min":94,"x_max":183,"ha":279,"o":"m 138 31 q 107 44 121 31 q 94 77 94 57 q 107 109 94 96 q 138 123 121 123 q 169 109 155 123 q 183 77 183 96 q 169 44 183 57 q 138 31 155 31 m 110 1042 l 168 1042 l 168 231 l 110 231 l 110 1042 "}," ":{"x_min":0,"x_max":0,"ha":417},"{":{"x_min":41,"x_max":354,"ha":404,"o":"m 41 382 l 41 446 q 96 466 74 447 q 130 512 117 484 q 146 573 142 540 q 151 633 151 605 l 151 872 q 162 969 151 936 q 192 1017 173 1002 q 236 1033 212 1031 q 288 1036 260 1036 l 354 1036 l 354 980 l 281 980 q 223 947 238 980 q 209 829 209 914 l 209 632 q 200 538 209 575 q 179 477 192 501 q 151 439 167 452 q 118 415 135 425 q 151 391 135 405 q 179 351 167 376 q 200 289 192 326 q 209 197 209 252 l 209 1 q 223 -117 209 -84 q 281 -150 238 -150 l 354 -150 l 354 -206 l 288 -206 q 233 -203 259 -206 q 189 -184 208 -201 q 161 -127 171 -167 q 151 -12 151 -87 l 151 194 q 146 254 151 222 q 130 315 142 287 q 96 361 117 343 q 41 382 74 380 "},"X":{"x_min":49,"x_max":929,"ha":978,"o":"m 49 972 l 328 972 l 328 916 l 248 916 q 363 741 307 828 q 476 566 419 653 l 490 541 l 504 566 l 729 916 l 649 916 l 649 972 l 929 972 l 929 916 l 798 916 q 662 703 730 807 q 525 491 594 598 q 667 273 596 381 q 810 56 739 165 l 929 56 l 929 0 l 649 0 l 649 56 l 737 56 l 529 376 q 507 412 518 393 q 484 448 496 431 l 471 422 q 352 238 411 329 q 234 56 293 147 l 328 56 l 328 0 l 49 0 l 49 56 l 164 56 l 450 498 l 177 916 l 49 916 l 49 972 "},"P":{"x_min":48,"x_max":639,"ha":688,"o":"m 48 56 l 133 56 l 133 916 l 48 916 l 48 972 l 341 972 q 435 958 384 972 q 532 913 487 944 q 608 834 577 883 q 639 717 639 785 q 563 527 639 598 q 343 457 487 457 l 189 457 l 189 56 l 327 56 l 327 0 l 48 0 l 48 56 m 189 513 l 334 513 q 455 532 406 513 q 532 582 503 551 q 571 648 560 613 q 583 717 583 683 q 564 792 583 756 q 511 856 545 828 q 432 900 478 884 q 335 916 387 916 l 189 916 l 189 513 "},"%":{"x_min":140,"x_max":888,"ha":1008,"o":"m 621 154 q 650 79 621 109 q 725 50 680 50 q 800 79 770 50 q 830 154 830 109 q 800 228 830 197 q 725 259 770 259 q 650 228 680 259 q 621 154 621 197 m 725 -6 q 662 6 692 -6 q 610 40 632 19 q 576 91 589 62 q 563 155 563 121 q 576 217 563 188 q 610 268 589 246 q 662 302 632 289 q 725 315 692 315 q 788 302 758 315 q 839 268 817 289 q 874 217 861 246 q 888 155 888 188 q 874 91 888 121 q 839 40 861 62 q 788 6 817 19 q 725 -6 758 -6 m 198 538 q 227 465 198 495 q 302 435 257 435 q 377 465 347 435 q 407 538 407 495 q 377 613 407 583 q 302 644 347 644 q 227 613 257 644 q 198 538 198 583 m 302 379 q 239 391 269 379 q 187 425 209 404 q 153 476 166 447 q 140 540 140 506 q 153 602 140 573 q 187 653 166 631 q 239 687 209 674 q 302 700 269 700 q 365 687 335 700 q 416 653 394 674 q 451 602 438 631 q 465 540 465 573 q 451 476 465 506 q 416 425 438 447 q 365 391 394 404 q 302 379 335 379 m 269 0 q 476 347 373 175 q 683 695 578 519 l 747 695 q 540 347 642 519 q 333 0 437 175 l 269 0 "},"#":{"x_min":38,"x_max":708.5625,"ha":793,"o":"m 274 545 q 263 446 269 495 q 252 349 258 397 l 450 349 q 461 446 456 397 q 472 545 467 495 l 274 545 m 409 0 l 442 293 l 244 293 l 211 0 l 153 0 l 186 293 l 38 293 q 42 321 40 308 q 44 349 43 333 l 194 349 q 205 446 200 397 q 216 545 211 495 l 70 545 q 73 573 72 559 q 75 601 74 587 l 223 601 q 241 747 233 674 q 259 893 250 819 l 317 893 q 299 747 308 819 q 281 601 291 674 l 479 601 q 497 747 489 674 q 515 893 506 819 l 573 893 q 555 747 564 819 q 537 601 547 674 l 708 601 q 705 573 705 587 q 703 545 704 559 l 530 545 q 519 446 525 495 q 508 349 514 397 l 676 349 q 673 321 675 333 q 671 293 672 308 l 500 293 l 467 0 l 409 0 "},"_":{"x_min":139,"x_max":695,"ha":833,"o":"m 695 0 l 139 0 l 139 56 l 695 56 l 695 0 "},"+":{"x_min":119,"x_max":619,"ha":754,"o":"m 340 71 l 340 293 l 119 293 l 119 349 l 340 349 l 340 570 l 398 570 l 398 349 l 619 349 l 619 293 l 398 293 l 398 71 l 340 71 "},")":{"x_min":134,"x_max":406,"ha":556,"o":"m 406 403 q 386 204 406 298 q 335 29 367 109 q 261 -117 303 -51 q 177 -229 220 -183 q 155 -213 165 -220 q 134 -197 145 -205 q 212 -88 174 -151 q 281 50 250 -26 q 329 215 311 126 q 348 403 348 304 q 329 590 348 501 q 281 755 311 679 q 212 894 250 832 q 134 1003 174 957 q 155 1019 145 1011 q 177 1035 165 1026 q 261 923 220 989 q 335 776 303 857 q 386 601 367 696 q 406 403 406 507 "},"'":{"x_min":79,"x_max":140,"ha":213,"o":"m 79 656 l 79 1000 l 140 1000 q 137 828 138 912 q 134 656 135 743 l 79 656 "},"}":{"x_min":90,"x_max":403,"ha":444,"o":"m 403 446 l 403 382 q 341 354 362 379 q 308 296 319 330 q 295 225 297 262 q 293 163 293 188 l 293 -41 q 281 -140 293 -107 q 251 -188 270 -174 q 206 -204 231 -203 q 155 -206 181 -206 l 90 -206 l 90 -150 l 162 -150 q 220 -117 205 -150 q 235 1 235 -84 l 235 229 q 244 305 235 273 q 266 359 253 337 q 296 393 280 380 q 325 415 312 407 q 292 439 308 425 q 264 477 276 452 q 243 538 251 501 q 235 632 235 575 l 235 829 q 220 947 235 914 q 162 980 205 980 l 90 980 l 90 1036 l 155 1036 q 206 1034 181 1036 q 250 1018 231 1033 q 281 970 269 1004 q 293 872 293 936 l 293 663 q 295 602 293 638 q 308 531 297 565 q 341 472 319 497 q 403 446 362 447 "},"a":{"x_min":49,"x_max":699,"ha":747,"o":"m 49 261 q 70 365 49 316 q 128 452 92 415 q 215 510 165 488 q 322 532 265 532 q 398 520 362 532 q 463 489 434 508 q 513 446 493 470 q 543 398 533 422 q 545 459 543 429 q 548 521 547 490 l 596 521 l 596 56 l 699 56 l 699 0 l 543 0 l 543 55 q 543 88 543 72 q 544 119 544 104 q 514 72 534 95 q 465 30 494 48 q 400 1 437 12 q 322 -10 364 -10 q 215 11 265 -10 q 128 69 165 33 q 70 154 92 105 q 49 261 49 204 m 107 260 q 123 176 107 215 q 168 108 140 137 q 236 62 197 79 q 322 46 276 46 q 406 62 368 46 q 474 108 445 79 q 520 176 504 137 q 537 260 537 215 q 520 344 537 304 q 474 413 504 384 q 406 459 445 442 q 322 476 368 476 q 236 459 276 476 q 168 413 197 442 q 123 344 140 384 q 107 260 107 304 "},"T":{"x_min":49,"x_max":817,"ha":865,"o":"m 291 56 l 405 56 l 405 916 l 105 916 l 105 758 l 49 758 l 49 972 l 817 972 l 817 758 l 761 758 l 761 916 l 461 916 l 461 56 l 569 56 l 569 0 l 291 0 l 291 56 "},"=":{"x_min":139,"x_max":842,"ha":983,"o":"m 842 244 l 842 188 l 139 188 l 139 244 l 842 244 m 842 513 l 842 457 l 139 457 l 139 513 l 842 513 "},"N":{"x_min":48,"x_max":1127,"ha":1175,"o":"m 48 56 l 161 56 l 161 916 l 48 916 l 48 972 l 198 972 l 929 122 l 956 86 l 952 130 l 952 916 l 848 916 l 848 972 l 1127 972 l 1127 916 l 1010 916 l 1010 -44 l 241 842 l 214 872 l 219 834 l 219 56 l 327 56 l 327 0 l 48 0 l 48 56 "},"˚":{"x_min":65,"x_max":268,"ha":333,"o":"m 108 750 q 125 709 108 727 q 166 691 142 691 q 207 709 189 691 q 226 750 226 727 q 207 791 226 774 q 166 809 189 809 q 125 791 142 809 q 108 750 108 774 m 65 750 q 94 822 65 792 q 166 852 124 852 q 238 822 208 852 q 268 750 268 792 q 238 678 268 708 q 166 649 208 649 q 94 678 124 649 q 65 750 65 708 "},"2":{"x_min":67,"x_max":651,"ha":701,"o":"m 215 56 l 595 56 l 595 203 l 651 203 l 651 0 l 73 0 q 244 168 161 86 q 391 330 327 251 q 494 481 455 408 q 533 620 533 554 q 512 733 533 688 q 462 806 492 778 q 397 846 432 834 q 331 858 361 858 q 228 835 268 858 q 166 781 189 813 q 134 711 143 749 q 125 643 125 674 q 139 557 125 595 q 180 490 153 519 l 145 456 q 87 538 108 487 q 67 643 67 589 q 84 748 67 698 q 135 834 101 797 q 217 892 168 870 q 331 914 267 914 q 437 892 389 914 q 519 833 485 870 q 572 745 553 795 q 591 636 591 694 q 556 486 591 561 q 468 340 522 412 q 347 196 414 268 q 215 56 280 125 "},"j":{"x_min":49,"x_max":224,"ha":256,"o":"m 49 521 l 206 521 l 206 -5 q 181 -148 206 -87 q 115 -250 157 -209 l 74 -208 q 129 -123 109 -173 q 150 -7 150 -73 l 150 465 l 49 465 l 49 521 m 134 706 q 147 738 134 725 q 179 752 161 752 q 210 738 197 752 q 224 706 224 725 q 210 673 224 686 q 179 660 197 660 q 147 673 161 660 q 134 706 134 686 "},"Z":{"x_min":48,"x_max":825,"ha":874,"o":"m 825 279 l 825 0 l 48 0 l 48 56 l 711 916 l 72 916 l 72 1021 l 130 1021 l 130 972 l 785 972 l 785 916 l 121 56 l 769 56 l 769 279 l 825 279 "},"u":{"x_min":48,"x_max":700,"ha":749,"o":"m 48 521 l 207 521 l 207 159 q 239 81 209 114 q 328 45 269 47 q 410 59 371 45 q 478 99 449 74 q 525 159 508 124 q 543 235 543 193 l 543 465 l 440 465 l 440 521 l 601 521 l 601 50 l 700 50 l 700 0 l 549 0 l 547 72 l 547 134 q 457 28 519 68 q 319 -11 395 -11 q 198 32 242 -11 q 151 144 153 75 l 151 465 l 48 465 l 48 521 "},"1":{"x_min":47,"x_max":348,"ha":368,"o":"m 68 56 l 179 56 l 179 847 l 47 847 l 47 903 l 237 903 l 237 56 l 348 56 l 348 0 l 68 0 l 68 56 "},"k":{"x_min":48,"x_max":650,"ha":699,"o":"m 393 56 l 459 56 q 377 166 419 111 q 296 276 336 220 l 207 193 l 207 56 l 315 56 l 315 0 l 48 0 l 48 56 l 151 56 l 151 986 l 52 986 l 52 1042 l 207 1042 l 207 263 l 423 465 l 340 465 l 340 521 l 597 521 l 597 465 l 497 465 q 418 390 453 424 q 339 315 382 355 q 432 184 385 248 q 529 56 480 121 l 650 56 l 650 0 l 393 0 l 393 56 "},"ı":{"x_min":49,"x_max":317,"ha":365,"o":"m 49 56 l 156 56 l 156 465 l 49 465 l 49 521 l 214 521 l 214 56 l 317 56 l 317 0 l 49 0 l 49 56 "},"<":{"x_min":160,"x_max":768,"ha":945,"o":"m 768 55 l 768 -21 q 464 154 615 66 q 160 330 312 242 q 464 506 312 418 q 768 682 615 594 l 768 605 q 529 468 648 536 q 290 330 411 399 q 529 192 411 261 q 768 55 648 124 "},"t":{"x_min":49,"x_max":388,"ha":436,"o":"m 170 860 l 228 860 l 228 521 l 388 521 l 388 465 l 228 465 l 228 56 l 342 56 l 342 0 l 170 0 l 170 465 l 49 465 l 49 521 l 170 521 l 170 860 "},"W":{"x_min":48,"x_max":1623,"ha":1671,"o":"m 48 972 l 328 972 l 328 916 l 225 916 q 390 519 308 716 q 561 124 473 322 l 573 85 q 681 361 619 223 q 802 634 744 498 q 743 775 773 705 q 683 916 714 845 l 567 916 l 567 972 l 846 972 l 846 916 l 741 916 q 908 519 824 716 q 1077 124 991 322 l 1090 85 l 1103 124 q 1271 519 1187 322 q 1439 916 1356 716 l 1344 916 l 1344 972 l 1623 972 l 1623 916 l 1497 916 q 1294 436 1396 674 q 1090 -44 1193 197 l 844 534 l 832 572 q 706 262 776 418 q 573 -44 637 107 q 368 436 470 197 q 165 916 266 674 l 48 916 l 48 972 "},"v":{"x_min":49,"x_max":768,"ha":817,"o":"m 49 521 l 306 521 l 306 465 l 215 465 q 317 269 267 367 q 411 73 367 170 q 503 265 453 165 q 606 465 554 365 l 526 465 l 526 521 l 768 521 l 768 465 l 667 465 q 539 215 603 338 q 411 -32 475 92 q 283 215 346 92 q 155 465 219 338 l 49 465 l 49 521 "},">":{"x_min":160,"x_max":768,"ha":903,"o":"m 160 -21 l 160 55 q 399 192 280 124 q 637 330 518 261 q 399 468 518 399 q 160 605 280 536 l 160 682 q 464 506 312 594 q 768 330 615 418 q 464 154 615 242 q 160 -21 312 66 "},"s":{"x_min":72,"x_max":404,"ha":447,"o":"m 125 143 l 125 71 q 179 49 150 53 q 238 45 209 45 q 269 49 251 45 q 304 66 287 54 q 333 96 320 78 q 346 141 346 115 q 327 197 346 178 q 281 229 309 217 q 219 250 252 241 q 157 274 186 259 q 109 314 128 289 q 90 385 90 339 q 103 448 90 421 q 139 493 117 475 q 187 520 160 511 q 239 529 214 529 q 262 527 245 529 q 302 521 280 526 q 346 506 324 516 q 383 480 367 497 l 383 378 l 330 378 l 330 452 q 306 464 320 460 q 279 470 292 468 q 255 473 266 473 q 241 473 245 473 q 207 468 224 473 q 177 452 191 463 q 155 426 163 442 q 148 386 148 410 q 167 338 148 355 q 215 309 186 320 q 276 286 244 297 q 337 259 309 276 q 385 216 366 243 q 404 145 404 190 q 394 95 404 122 q 366 44 385 68 q 314 4 347 20 q 235 -11 281 -11 q 200 -8 222 -11 q 155 -1 178 -6 q 109 13 131 4 q 72 40 87 23 l 72 143 l 125 143 "},"B":{"x_min":48,"x_max":682,"ha":731,"o":"m 48 56 l 133 56 l 133 916 l 48 916 l 48 972 l 355 972 q 474 958 420 972 q 566 915 527 944 q 625 839 604 885 q 646 729 646 792 q 603 577 646 643 q 473 489 561 512 q 552 461 514 480 q 618 411 590 441 q 664 340 647 380 q 682 250 682 300 q 656 141 682 187 q 589 63 631 94 q 492 15 547 31 q 380 0 438 0 l 48 0 l 48 56 m 189 461 l 189 56 l 374 56 q 471 68 426 56 q 551 105 517 80 q 605 167 585 130 q 626 254 626 204 q 602 347 626 308 q 541 411 579 386 q 453 449 503 437 q 350 461 404 461 l 189 461 m 189 916 l 189 517 l 373 517 q 531 574 472 517 q 590 724 590 631 q 573 812 590 776 q 528 872 557 849 q 457 905 499 895 q 367 916 416 916 l 189 916 "},"?":{"x_min":48,"x_max":586,"ha":628,"o":"m 99 803 q 73 812 86 808 q 48 821 60 816 q 82 891 60 857 q 137 954 105 926 q 214 999 170 982 q 313 1017 257 1017 q 420 995 370 1017 q 507 937 470 973 q 565 851 544 900 q 586 746 586 801 q 549 613 586 671 q 449 511 512 555 q 402 479 425 493 q 361 448 379 465 q 332 404 343 430 q 321 336 321 378 l 321 228 l 263 228 l 263 362 q 278 432 263 405 q 318 480 293 459 q 373 520 342 501 q 438 566 405 539 q 506 649 484 604 q 528 746 528 695 q 511 831 528 792 q 466 899 495 870 q 398 944 437 928 q 313 961 359 961 q 177 919 232 961 q 99 803 122 877 m 291 21 q 260 34 275 21 q 246 67 246 47 q 260 99 246 86 q 291 113 275 113 q 322 99 308 113 q 336 67 336 86 q 322 34 336 47 q 291 21 308 21 "},"H":{"x_min":49,"x_max":977,"ha":1025,"o":"m 698 972 l 977 972 l 977 916 l 870 916 l 870 56 l 977 56 l 977 0 l 698 0 l 698 56 l 812 56 l 812 462 l 213 462 l 213 56 l 327 56 l 327 0 l 49 0 l 49 56 l 157 56 l 157 916 l 49 916 l 49 972 l 327 972 l 327 916 l 213 916 l 213 518 l 812 518 l 812 916 l 698 916 l 698 972 "},"c":{"x_min":49,"x_max":495,"ha":543,"o":"m 494 49 q 414 6 457 22 q 321 -10 371 -10 q 215 11 264 -10 q 128 69 165 33 q 70 154 92 105 q 49 261 49 204 q 70 366 49 316 q 128 452 92 416 q 215 510 165 488 q 321 532 264 532 q 415 516 371 532 q 495 472 460 500 l 495 336 l 442 336 l 442 438 q 385 466 415 456 q 321 476 355 476 q 236 459 275 476 q 168 413 197 442 q 123 344 140 384 q 107 260 107 304 q 123 176 107 215 q 168 108 140 137 q 236 62 197 79 q 321 46 275 46 q 457 93 400 46 l 494 49 "},"&":{"x_min":147,"x_max":835,"ha":972,"o":"m 635 521 l 835 521 l 835 465 l 693 465 l 693 370 q 693 261 694 320 q 666 150 691 203 l 756 4 l 712 -26 l 637 94 q 543 17 600 46 q 419 -11 486 -11 q 313 10 362 -11 q 226 68 263 32 q 168 153 190 104 q 147 260 147 203 q 163 355 147 310 q 211 435 180 400 q 282 495 241 471 q 372 527 323 518 l 273 689 q 238 775 248 731 q 234 862 228 819 q 266 943 241 905 q 337 1008 291 980 q 417 1037 376 1032 q 496 1035 458 1042 q 569 1012 535 1028 q 630 981 603 997 l 606 934 q 553 960 581 947 q 495 979 524 973 q 434 983 465 986 q 375 962 404 980 q 292 844 300 915 q 325 705 284 773 l 615 233 q 635 310 635 268 l 635 521 m 203 259 q 219 175 203 214 q 265 107 236 136 q 333 61 293 78 q 419 45 373 45 q 528 73 480 45 q 604 148 576 102 l 405 474 q 325 452 362 469 q 261 407 288 435 q 218 340 233 379 q 203 259 203 302 "},"I":{"x_min":49,"x_max":327,"ha":376,"o":"m 49 56 l 157 56 l 157 916 l 49 916 l 49 972 l 327 972 l 327 916 l 213 916 l 213 56 l 327 56 l 327 0 l 49 0 l 49 56 "},"G":{"x_min":48,"x_max":798.390625,"ha":846,"o":"m 797 414 l 797 55 q 678 4 741 23 q 544 -14 614 -14 q 350 24 441 -14 q 193 131 260 63 q 86 288 125 198 q 48 482 48 379 q 86 675 48 584 q 193 834 125 766 q 350 941 260 901 q 544 981 441 981 q 678 962 614 981 q 798 911 741 944 l 766 864 q 661 909 717 893 q 543 925 605 925 q 373 889 453 925 q 233 793 293 854 q 140 652 174 733 q 106 480 106 572 q 140 310 106 390 q 233 171 174 230 q 372 76 293 111 q 541 42 451 42 q 739 89 647 42 l 739 358 l 539 358 l 539 414 l 797 414 "},"(":{"x_min":186,"x_max":458,"ha":564,"o":"m 186 406 q 205 604 186 510 q 256 779 224 699 q 329 926 288 860 q 414 1038 370 992 q 436 1022 426 1029 q 458 1006 446 1014 q 379 897 417 960 q 310 758 341 835 q 262 593 280 682 q 244 406 244 504 q 262 218 244 307 q 310 53 280 129 q 379 -85 341 -23 q 458 -194 417 -148 q 436 -210 446 -202 q 414 -226 426 -217 q 329 -114 370 -180 q 256 32 288 -48 q 205 207 224 112 q 186 406 186 301 "},"`":{"x_min":-40,"x_max":145,"ha":278,"o":"m 19 850 q 82 757 51 804 q 145 665 113 710 l 99 665 q 29 757 64 710 q -40 850 -5 804 l 19 850 "},"U":{"x_min":48,"x_max":918,"ha":967,"o":"m 48 972 l 327 972 l 327 916 l 213 916 l 213 318 q 233 201 213 251 q 288 115 253 150 q 373 63 324 81 q 483 45 423 45 q 590 63 541 45 q 676 115 640 81 q 732 201 712 150 q 753 318 753 251 l 753 916 l 639 916 l 639 972 l 918 972 l 918 916 l 811 916 l 811 313 q 785 173 811 234 q 716 71 760 112 q 612 9 672 30 q 483 -11 552 -11 q 352 9 412 -11 q 248 71 292 30 q 180 173 205 112 q 155 313 155 234 l 155 916 l 48 916 l 48 972 "},"F":{"x_min":49,"x_max":725,"ha":774,"o":"m 49 56 l 149 56 l 149 916 l 49 916 l 49 972 l 725 972 l 725 758 l 669 758 l 669 916 l 205 916 l 205 518 l 671 518 l 671 462 l 205 462 l 205 56 l 327 56 l 327 0 l 49 0 l 49 56 "},"r":{"x_min":49,"x_max":429,"ha":478,"o":"m 49 56 l 157 56 l 157 465 l 57 465 l 57 521 l 203 521 l 204 472 q 207 429 206 448 q 208 386 208 409 q 302 492 240 454 q 429 532 364 530 l 424 476 q 341 460 380 474 q 275 420 303 445 q 229 360 246 395 q 213 285 213 325 l 213 56 l 316 56 l 316 0 l 49 0 l 49 56 "},":":{"x_min":72,"x_max":162,"ha":243,"o":"m 72 393 q 85 425 72 412 q 117 439 99 439 q 148 425 135 439 q 162 393 162 412 q 148 360 162 373 q 117 347 135 347 q 85 360 99 347 q 72 393 72 373 m 72 46 q 85 78 72 65 q 117 92 99 92 q 148 78 135 92 q 162 46 162 65 q 148 13 162 26 q 117 0 135 0 q 85 13 99 0 q 72 46 72 26 "},"x":{"x_min":48,"x_max":650,"ha":699,"o":"m 48 521 l 317 521 l 317 465 l 230 465 l 353 297 l 474 465 l 395 465 l 395 521 l 650 521 l 650 465 l 544 465 l 388 251 q 460 153 424 201 q 533 56 496 104 l 650 56 l 650 0 l 382 0 l 382 56 l 460 56 q 400 138 430 97 q 341 219 370 179 q 281 137 310 179 q 223 56 252 96 l 304 56 l 304 0 l 48 0 l 48 56 l 151 56 l 305 268 q 232 365 269 316 q 159 465 195 415 l 48 465 l 48 521 "},"*":{"x_min":46,"x_max":421,"ha":465,"o":"m 290 798 q 355 762 322 780 q 420 725 387 744 q 403 699 411 712 q 387 672 396 686 q 324 709 355 691 q 261 747 293 727 q 259 675 259 711 q 258 603 259 639 l 203 603 l 203 747 q 140 712 171 729 q 77 675 109 694 q 61 702 69 689 q 46 729 54 715 q 109 764 77 747 q 173 800 141 782 q 110 837 141 819 q 47 875 79 855 q 74 923 58 898 q 138 886 106 904 q 203 848 170 868 l 203 1000 l 264 1000 q 263 925 264 962 q 262 848 262 887 q 327 886 294 868 q 393 922 361 904 q 407 898 400 911 q 421 873 414 886 q 355 836 387 854 q 290 798 323 818 "},"V":{"x_min":48,"x_max":1104,"ha":1153,"o":"m 48 972 l 328 972 l 328 916 l 225 916 q 392 519 308 716 q 561 124 476 322 l 573 85 l 585 124 q 753 519 669 322 q 920 916 837 716 l 825 916 l 825 972 l 1104 972 l 1104 916 l 980 916 q 776 436 879 674 q 573 -44 674 197 q 368 436 470 197 q 165 916 266 674 l 48 916 l 48 972 "},"h":{"x_min":49,"x_max":708,"ha":757,"o":"m 441 56 l 549 56 l 549 361 q 516 439 546 406 q 427 476 486 473 q 346 461 385 476 q 277 421 307 446 q 230 361 247 396 q 213 285 213 327 l 213 56 l 316 56 l 316 0 l 49 0 l 49 56 l 157 56 l 157 986 l 54 986 l 54 1042 l 213 1042 l 213 448 l 208 386 q 298 491 238 452 q 438 532 359 529 q 559 488 515 532 q 607 376 604 445 l 607 56 l 708 56 l 708 0 l 441 0 l 441 56 "},"0":{"x_min":50,"x_max":796,"ha":856,"o":"m 50 454 q 74 618 50 536 q 145 766 98 701 q 262 873 191 832 q 427 914 333 914 q 590 872 520 914 q 705 763 659 830 q 773 614 751 697 q 796 449 796 531 q 764 265 796 349 q 681 119 733 180 q 561 24 629 58 q 419 -10 493 -10 q 278 25 345 -10 q 160 122 211 60 q 79 269 109 184 q 50 454 50 354 m 110 454 q 135 289 110 364 q 204 160 161 214 q 303 76 247 107 q 421 46 360 46 q 539 75 482 46 q 640 157 596 104 q 710 284 683 210 q 738 449 738 358 q 717 604 738 531 q 656 734 696 678 q 557 824 615 791 q 426 858 499 858 q 294 826 353 858 q 195 738 236 794 q 132 609 154 682 q 110 454 110 535 "},".":{"x_min":74,"x_max":164,"ha":226,"o":"m 74 46 q 87 78 74 65 q 119 92 101 92 q 150 78 136 92 q 164 46 164 65 q 150 13 164 26 q 119 0 136 0 q 87 13 101 0 q 74 46 74 26 "},"@":{"x_min":114,"x_max":1243,"ha":1375,"o":"m 462 260 q 478 176 462 215 q 523 108 495 137 q 591 62 552 79 q 677 46 631 46 q 762 62 723 46 q 830 108 802 79 q 875 176 859 137 q 892 260 892 215 q 875 344 892 304 q 830 413 859 384 q 762 459 802 442 q 677 476 723 476 q 591 459 631 476 q 523 413 552 442 q 478 344 495 384 q 462 260 462 304 m 1243 260 q 1217 131 1238 181 q 1165 51 1197 80 q 1096 11 1134 22 q 1023 0 1059 0 l 898 0 l 898 55 q 898 88 898 72 q 899 119 899 104 q 869 72 889 95 q 820 30 849 48 q 755 1 792 12 q 677 -10 719 -10 q 570 11 620 -10 q 483 69 520 33 q 425 154 447 105 q 404 261 404 204 q 425 365 404 316 q 483 452 447 415 q 570 510 520 488 q 677 532 620 532 q 752 520 717 532 q 817 489 788 508 q 867 447 846 470 q 898 398 888 423 q 900 459 898 429 q 903 521 902 490 l 951 521 l 951 56 l 1029 56 q 1139 104 1095 56 q 1185 261 1182 153 q 1145 460 1185 367 q 1037 622 1105 553 q 875 730 968 690 q 679 770 783 770 q 481 730 573 770 q 319 621 388 690 q 211 459 251 552 q 172 260 172 366 q 211 62 172 154 q 319 -97 251 -28 q 480 -206 388 -166 q 678 -246 573 -246 q 837 -220 762 -246 q 977 -151 913 -195 q 995 -171 987 -162 q 1012 -192 1003 -181 q 856 -273 942 -245 q 678 -302 770 -302 q 459 -257 562 -302 q 279 -136 356 -213 q 158 42 202 -60 q 114 262 114 145 q 158 481 114 378 q 279 660 202 584 q 459 781 357 737 q 679 826 562 826 q 898 781 795 826 q 1077 660 1001 737 q 1198 481 1154 584 q 1243 260 1243 378 "},"f":{"x_min":48,"x_max":421,"ha":421,"o":"m 48 56 l 133 56 l 133 465 l 48 465 l 48 521 l 133 521 l 133 719 q 155 855 133 796 q 216 955 177 915 q 308 1017 255 996 q 421 1042 361 1039 l 421 986 q 330 966 373 984 q 256 913 288 948 q 207 830 225 879 q 189 720 189 781 l 189 521 l 364 521 l 364 465 l 189 465 l 189 56 l 315 56 l 315 0 l 48 0 l 48 56 "},";":{"x_min":3,"x_max":201,"ha":279,"o":"m 109 393 q 122 425 109 412 q 155 439 136 439 q 187 425 173 439 q 201 393 201 412 q 187 360 201 373 q 155 347 173 347 q 122 360 136 347 q 109 393 109 373 m 177 119 q 118 -24 146 46 q 59 -167 89 -94 l 3 -167 q 56 -24 30 -94 q 110 119 82 46 l 177 119 "},"i":{"x_min":49,"x_max":317,"ha":365,"o":"m 49 56 l 156 56 l 156 465 l 49 465 l 49 521 l 214 521 l 214 56 l 317 56 l 317 0 l 49 0 l 49 56 m 141 706 q 154 738 141 725 q 186 752 168 752 q 217 738 203 752 q 231 706 231 725 q 217 673 231 686 q 186 660 203 660 q 154 673 168 660 q 141 706 141 686 "},"6":{"x_min":68,"x_max":650,"ha":722,"o":"m 126 276 q 144 185 126 227 q 194 112 162 143 q 268 63 226 81 q 358 45 309 45 q 449 63 405 45 q 524 112 492 81 q 575 185 556 143 q 594 276 594 227 q 575 366 594 323 q 524 440 556 408 q 449 490 492 472 q 358 509 405 509 q 268 490 309 509 q 194 440 226 472 q 144 366 162 408 q 126 276 126 323 m 68 270 q 111 457 68 370 q 220 620 154 544 q 369 760 287 695 q 529 882 451 825 q 547 858 537 870 q 567 834 557 845 q 333 649 418 737 q 210 496 248 560 q 275 546 237 527 q 358 565 313 565 q 471 542 417 565 q 564 480 524 519 q 627 388 604 441 q 650 276 650 335 q 627 164 650 216 q 564 73 604 112 q 471 11 524 34 q 358 -11 418 -11 q 247 11 299 -11 q 154 71 194 33 q 92 161 115 109 q 68 270 69 212 "},"A":{"x_min":48,"x_max":1079,"ha":1128,"o":"m 48 56 l 155 56 q 360 536 257 297 q 563 1017 462 775 q 766 536 664 775 q 970 56 869 297 l 1079 56 l 1079 0 l 811 0 l 811 56 l 912 56 q 836 235 873 146 q 759 416 798 324 l 367 416 q 291 235 328 324 q 215 56 254 146 l 317 56 l 317 0 l 48 0 l 48 56 m 576 848 l 563 887 q 556 866 560 883 q 549 848 553 858 q 517 767 535 812 q 477 672 498 722 q 435 572 456 623 q 392 472 413 520 l 734 472 l 576 848 "},"n":{"x_min":49,"x_max":708,"ha":757,"o":"m 441 56 l 549 56 l 549 361 q 516 439 546 406 q 427 476 486 473 q 346 461 385 476 q 277 421 307 446 q 230 361 247 396 q 213 285 213 327 l 213 56 l 316 56 l 316 0 l 49 0 l 49 56 l 157 56 l 157 465 l 57 465 l 57 521 l 203 521 l 204 472 q 207 429 206 448 q 208 386 208 409 q 298 491 236 451 q 438 532 360 532 q 559 488 515 532 q 607 376 604 445 l 607 56 l 708 56 l 708 0 l 441 0 l 441 56 "},"O":{"x_min":48,"x_max":1043,"ha":1092,"o":"m 48 484 q 86 678 48 587 q 193 836 125 769 q 350 943 260 903 q 544 983 441 983 q 737 943 646 983 q 896 836 828 903 q 1003 678 963 769 q 1043 484 1043 587 q 1003 291 1043 381 q 896 134 963 201 q 737 27 828 66 q 544 -11 646 -11 q 350 27 441 -11 q 193 134 260 66 q 86 291 125 201 q 48 484 48 381 m 106 483 q 140 311 106 391 q 233 173 174 232 q 373 79 293 114 q 542 45 452 45 q 713 79 633 45 q 854 173 794 114 q 950 313 915 233 q 985 484 985 393 q 950 656 985 576 q 855 797 915 737 q 715 892 795 857 q 544 927 634 927 q 373 891 453 927 q 233 795 293 856 q 140 655 174 735 q 106 483 106 574 "},"3":{"x_min":110,"x_max":616,"ha":715,"o":"m 234 482 l 488 847 l 199 847 l 199 763 l 143 763 l 143 903 l 592 903 l 346 561 q 451 533 402 556 q 537 473 500 511 q 595 386 574 436 q 616 279 616 337 q 593 166 616 219 q 530 74 570 113 q 437 11 490 34 q 324 -11 383 -11 q 205 14 260 -11 q 110 83 150 40 l 153 127 q 226 67 183 90 q 321 45 269 45 q 413 63 370 45 q 488 114 456 82 q 539 188 520 146 q 558 278 558 231 q 539 368 558 325 q 488 442 520 410 q 413 492 456 474 q 321 511 370 511 q 275 503 297 511 q 234 482 253 495 "},"]":{"x_min":106,"x_max":349,"ha":475,"o":"m 349 1036 l 349 -207 l 106 -207 l 106 -151 l 289 -151 l 289 980 l 106 980 l 106 1036 l 349 1036 "},"m":{"x_min":49,"x_max":1102,"ha":1150,"o":"m 835 56 l 943 56 l 943 361 q 910 439 940 406 q 821 476 880 473 q 740 462 779 476 q 672 423 701 448 q 625 364 643 398 q 607 289 608 329 l 607 56 l 710 56 l 710 0 l 441 0 l 441 56 l 549 56 l 549 361 q 516 439 546 406 q 427 476 486 473 q 346 461 385 476 q 277 421 307 446 q 230 361 247 396 q 213 285 213 327 l 213 56 l 316 56 l 316 0 l 49 0 l 49 56 l 157 56 l 157 465 l 57 465 l 57 521 l 203 521 l 204 472 q 207 429 206 448 q 208 386 208 409 q 298 491 238 452 q 438 532 359 530 q 553 493 509 532 q 605 393 597 455 q 694 493 634 455 q 830 532 754 530 q 951 488 907 532 q 999 376 996 445 l 999 56 l 1102 56 l 1102 0 l 835 0 l 835 56 "},"9":{"x_min":60,"x_max":643,"ha":729,"o":"m 583 594 q 564 683 583 641 q 515 757 546 726 q 442 806 484 788 q 352 825 399 825 q 261 806 304 825 q 187 757 219 788 q 136 683 155 726 q 118 594 118 641 q 136 503 118 545 q 187 430 155 462 q 261 380 219 398 q 352 362 304 362 q 442 380 399 362 q 515 430 484 398 q 564 503 546 462 q 583 594 583 545 m 643 593 q 600 408 643 494 q 489 247 557 322 q 340 108 422 172 q 182 -11 258 44 q 163 11 172 0 q 145 34 154 23 q 377 221 292 133 q 500 374 462 308 q 434 324 473 342 q 351 306 395 306 q 238 328 291 306 q 145 389 184 350 q 82 481 105 428 q 60 593 60 533 q 82 705 60 653 q 145 796 105 757 q 238 858 184 835 q 351 881 291 881 q 464 858 411 881 q 557 796 518 835 q 620 705 597 757 q 643 593 643 653 "},"l":{"x_min":49,"x_max":316,"ha":365,"o":"m 49 56 l 152 56 l 152 986 l 53 986 l 53 1042 l 208 1042 l 208 56 l 316 56 l 316 0 l 49 0 l 49 56 "},"8":{"x_min":64,"x_max":646,"ha":708,"o":"m 201 703 q 212 648 201 673 q 245 604 224 622 q 293 575 266 585 q 352 565 320 565 q 459 604 417 565 q 502 703 502 643 q 490 761 502 733 q 459 811 479 789 q 412 845 439 832 q 352 858 384 858 q 293 845 320 858 q 245 811 266 832 q 212 761 224 789 q 201 703 201 733 m 124 279 q 141 190 124 232 q 189 115 158 147 q 262 63 221 82 q 351 45 303 45 q 443 63 400 45 q 518 115 486 82 q 569 190 550 147 q 588 279 588 232 q 569 367 588 327 q 519 440 550 408 q 444 490 487 471 q 354 509 401 509 q 263 490 305 509 q 189 441 221 472 q 141 368 158 410 q 124 279 124 327 m 64 279 q 115 441 64 370 q 247 541 166 511 q 171 608 199 564 q 143 708 143 652 q 158 787 143 750 q 203 853 174 825 q 269 898 231 882 q 350 914 307 914 q 432 897 393 914 q 498 852 471 880 q 543 786 526 823 q 560 705 560 748 q 531 608 560 651 q 458 541 503 565 q 533 500 498 526 q 593 441 568 475 q 632 366 618 407 q 646 279 646 325 q 622 166 646 219 q 559 74 598 114 q 466 11 519 34 q 352 -11 412 -11 q 241 11 293 -11 q 149 74 189 34 q 86 166 109 114 q 64 279 64 219 "},"p":{"x_min":49,"x_max":699,"ha":747,"o":"m 60 -291 l 153 -291 l 153 465 l 49 465 l 49 521 l 198 521 q 200 458 198 490 q 204 396 202 426 q 233 445 213 421 q 283 488 254 469 q 349 519 312 507 q 426 531 386 531 q 533 509 483 531 q 620 451 583 487 q 678 365 657 415 q 699 260 699 315 q 678 155 699 204 q 620 68 657 105 q 533 10 583 32 q 426 -11 483 -11 q 348 0 384 -11 q 283 28 312 11 q 235 68 255 45 q 205 116 215 91 q 208 89 206 102 q 211 61 209 75 l 211 -291 l 328 -291 l 328 -347 l 60 -347 l 60 -291 m 641 260 q 624 345 641 306 q 579 413 607 384 q 511 458 550 441 q 426 475 472 475 q 341 458 380 475 q 272 413 301 441 q 226 345 243 384 q 209 260 209 306 q 226 176 209 216 q 272 107 243 136 q 341 61 301 78 q 426 45 380 45 q 511 61 472 45 q 579 107 550 78 q 624 176 607 136 q 641 260 641 216 "},"4":{"x_min":51.96875,"x_max":695,"ha":715,"o":"m 396 56 l 502 56 l 502 254 l 51 254 l 560 914 l 560 310 l 695 310 l 695 254 l 560 254 l 560 56 l 675 56 l 675 0 l 396 0 l 396 56 m 502 743 l 170 310 l 502 310 l 502 743 "},"R":{"x_min":48,"x_max":746,"ha":795,"o":"m 48 56 l 133 56 l 133 916 l 48 916 l 48 972 l 341 972 q 435 958 384 972 q 532 913 487 944 q 608 834 577 883 q 639 717 639 785 q 585 552 639 618 q 430 465 531 486 l 623 56 l 746 56 l 746 0 l 587 0 l 370 459 q 338 457 355 458 q 306 457 321 457 l 189 457 l 189 56 l 327 56 l 327 0 l 48 0 l 48 56 m 189 513 l 334 513 q 455 532 406 513 q 532 582 503 551 q 571 648 560 613 q 583 717 583 683 q 564 792 583 756 q 511 856 545 828 q 432 900 478 884 q 335 916 387 916 l 189 916 l 189 513 "},"o":{"x_min":50,"x_max":597,"ha":646,"o":"m 50 260 q 71 366 50 316 q 129 453 93 416 q 215 511 166 489 q 322 533 265 533 q 429 511 379 533 q 516 453 479 489 q 575 366 553 416 q 597 260 597 316 q 575 154 597 203 q 516 69 553 105 q 429 11 479 33 q 322 -10 379 -10 q 215 11 265 -10 q 129 69 166 33 q 71 154 93 105 q 50 260 50 203 m 106 260 q 122 177 106 216 q 168 108 139 138 q 236 62 197 79 q 320 46 275 46 q 404 62 364 46 q 473 108 444 79 q 519 177 502 138 q 536 260 536 216 q 519 344 536 305 q 473 412 502 383 q 404 459 444 442 q 320 477 364 477 q 236 459 275 477 q 168 412 197 442 q 122 344 139 383 q 106 260 106 305 "},"5":{"x_min":153,"x_max":646,"ha":754,"o":"m 597 903 l 597 763 l 541 763 l 541 847 l 257 847 l 257 544 q 303 559 279 554 q 352 565 327 565 q 466 542 412 565 q 559 481 519 520 q 622 390 598 442 q 646 279 646 338 q 622 166 646 219 q 559 74 598 113 q 466 11 519 34 q 352 -11 412 -11 q 243 10 294 -11 q 153 69 193 31 l 196 108 q 266 61 226 78 q 351 45 305 45 q 443 63 400 45 q 518 114 486 82 q 569 189 550 146 q 588 279 588 231 q 569 368 588 326 q 518 441 550 410 q 443 490 486 472 q 351 509 400 509 q 262 492 303 509 q 199 447 222 475 l 199 903 l 597 903 "}}}
